<mxfile host="app.diagrams.net" modified="2020-05-26T07:31:32.711Z" agent="5.0 (Macintosh; Intel Mac OS X 10_15_3) AppleWebKit/605.1.15 (KHTML, like Gecko) Version/13.0.5 Safari/605.1.15" etag="RmgEMOiR1H5MrOwbIeLr" version="13.1.3" type="github">
  <diagram id="2SYXAvezmY3Aa6xfIsyz" name="Page-1">
    <mxGraphModel dx="946" dy="662" grid="1" gridSize="10" guides="1" tooltips="1" connect="1" arrows="1" fold="1" page="1" pageScale="1" pageWidth="827" pageHeight="1169" math="0" shadow="0">
      <root>
        <mxCell id="0" />
        <mxCell id="1" parent="0" />
        <mxCell id="ULHrDu6kz-KwB8KMnbt6-15" style="edgeStyle=orthogonalEdgeStyle;rounded=1;orthogonalLoop=1;jettySize=auto;html=1;exitX=1;exitY=0.25;exitDx=0;exitDy=0;entryX=0;entryY=0.25;entryDx=0;entryDy=0;strokeColor=#808080;strokeWidth=2;" parent="1" source="ULHrDu6kz-KwB8KMnbt6-1" target="ULHrDu6kz-KwB8KMnbt6-2" edge="1">
          <mxGeometry relative="1" as="geometry" />
        </mxCell>
        <mxCell id="ULHrDu6kz-KwB8KMnbt6-1" value="&lt;b&gt;&lt;font style=&quot;font-size: 14px&quot;&gt;&amp;nbsp; &amp;nbsp;Шум ИИБ&lt;/font&gt;&lt;/b&gt;" style="rounded=1;whiteSpace=wrap;html=1;strokeWidth=2;strokeColor=#808080;" parent="1" vertex="1">
          <mxGeometry x="80" y="80" width="120" height="60" as="geometry" />
        </mxCell>
        <mxCell id="ULHrDu6kz-KwB8KMnbt6-16" style="edgeStyle=orthogonalEdgeStyle;rounded=1;orthogonalLoop=1;jettySize=auto;html=1;exitX=1;exitY=0.5;exitDx=0;exitDy=0;entryX=0;entryY=0.5;entryDx=0;entryDy=0;strokeColor=#808080;strokeWidth=2;" parent="1" source="ULHrDu6kz-KwB8KMnbt6-2" target="ULHrDu6kz-KwB8KMnbt6-7" edge="1">
          <mxGeometry relative="1" as="geometry" />
        </mxCell>
        <mxCell id="ULHrDu6kz-KwB8KMnbt6-2" value="&lt;span style=&quot;white-space: normal&quot;&gt;&lt;b&gt;Углы Tilt, Azimuth с учётом шума ИИБ&lt;/b&gt;&lt;/span&gt;" style="rounded=1;whiteSpace=wrap;html=1;strokeWidth=2;strokeColor=#808080;" parent="1" vertex="1">
          <mxGeometry x="240" y="120" width="120" height="60" as="geometry" />
        </mxCell>
        <mxCell id="ULHrDu6kz-KwB8KMnbt6-14" style="edgeStyle=orthogonalEdgeStyle;rounded=1;orthogonalLoop=1;jettySize=auto;html=1;exitX=1;exitY=0.25;exitDx=0;exitDy=0;entryX=0;entryY=0.75;entryDx=0;entryDy=0;strokeColor=#808080;strokeWidth=2;" parent="1" source="ULHrDu6kz-KwB8KMnbt6-3" target="ULHrDu6kz-KwB8KMnbt6-2" edge="1">
          <mxGeometry relative="1" as="geometry" />
        </mxCell>
        <mxCell id="ULHrDu6kz-KwB8KMnbt6-19" style="edgeStyle=orthogonalEdgeStyle;rounded=1;orthogonalLoop=1;jettySize=auto;html=1;exitX=1;exitY=0.75;exitDx=0;exitDy=0;entryX=0;entryY=0.5;entryDx=0;entryDy=0;strokeColor=#808080;strokeWidth=2;" parent="1" source="ULHrDu6kz-KwB8KMnbt6-3" target="ULHrDu6kz-KwB8KMnbt6-4" edge="1">
          <mxGeometry relative="1" as="geometry" />
        </mxCell>
        <mxCell id="ULHrDu6kz-KwB8KMnbt6-3" value="&lt;b&gt;&lt;font style=&quot;font-size: 14px&quot;&gt;Истинные углы Tilt, Azimuth&lt;/font&gt;&lt;/b&gt;" style="rounded=1;whiteSpace=wrap;html=1;strokeWidth=2;strokeColor=#808080;" parent="1" vertex="1">
          <mxGeometry x="80" y="200" width="120" height="60" as="geometry" />
        </mxCell>
        <mxCell id="ULHrDu6kz-KwB8KMnbt6-20" style="edgeStyle=orthogonalEdgeStyle;rounded=1;orthogonalLoop=1;jettySize=auto;html=1;exitX=1;exitY=0.75;exitDx=0;exitDy=0;entryX=0;entryY=0.25;entryDx=0;entryDy=0;strokeColor=#808080;strokeWidth=2;" parent="1" source="ULHrDu6kz-KwB8KMnbt6-4" target="ULHrDu6kz-KwB8KMnbt6-8" edge="1">
          <mxGeometry relative="1" as="geometry" />
        </mxCell>
        <mxCell id="ULHrDu6kz-KwB8KMnbt6-4" value="&lt;b&gt;Истинная проекция вехи на оси xyz -&amp;nbsp; Lxyz&lt;font style=&quot;font-size: 11px&quot;&gt;2&lt;/font&gt;&lt;/b&gt;" style="rounded=1;whiteSpace=wrap;html=1;strokeWidth=2;strokeColor=#808080;" parent="1" vertex="1">
          <mxGeometry x="240" y="230" width="120" height="60" as="geometry" />
        </mxCell>
        <mxCell id="ULHrDu6kz-KwB8KMnbt6-21" style="edgeStyle=orthogonalEdgeStyle;rounded=1;orthogonalLoop=1;jettySize=auto;html=1;exitX=1;exitY=0.5;exitDx=0;exitDy=0;strokeColor=#808080;strokeWidth=2;" parent="1" source="ULHrDu6kz-KwB8KMnbt6-5" target="ULHrDu6kz-KwB8KMnbt6-8" edge="1">
          <mxGeometry relative="1" as="geometry">
            <mxPoint x="330" y="360" as="targetPoint" />
            <Array as="points">
              <mxPoint x="350" y="360" />
              <mxPoint x="350" y="360" />
            </Array>
          </mxGeometry>
        </mxCell>
        <mxCell id="ULHrDu6kz-KwB8KMnbt6-32" style="edgeStyle=orthogonalEdgeStyle;rounded=1;orthogonalLoop=1;jettySize=auto;html=1;exitX=0;exitY=0.5;exitDx=0;exitDy=0;entryX=-0.017;entryY=0.867;entryDx=0;entryDy=0;entryPerimeter=0;strokeColor=#808080;strokeWidth=2;" parent="1" source="ULHrDu6kz-KwB8KMnbt6-5" target="ULHrDu6kz-KwB8KMnbt6-11" edge="1">
          <mxGeometry relative="1" as="geometry">
            <Array as="points">
              <mxPoint x="60" y="360" />
              <mxPoint x="60" y="520" />
              <mxPoint x="870" y="520" />
              <mxPoint x="870" y="352" />
            </Array>
          </mxGeometry>
        </mxCell>
        <mxCell id="ULHrDu6kz-KwB8KMnbt6-5" value="&lt;b&gt;&lt;font style=&quot;font-size: 12px&quot;&gt;Истинные координаты целевой точки&amp;nbsp; xyz&lt;font&gt;2&lt;/font&gt;&lt;/font&gt;&lt;/b&gt;" style="rounded=1;whiteSpace=wrap;html=1;strokeWidth=2;strokeColor=#808080;" parent="1" vertex="1">
          <mxGeometry x="80" y="330" width="120" height="60" as="geometry" />
        </mxCell>
        <mxCell id="ULHrDu6kz-KwB8KMnbt6-26" style="edgeStyle=orthogonalEdgeStyle;rounded=1;orthogonalLoop=1;jettySize=auto;html=1;exitX=1;exitY=0.5;exitDx=0;exitDy=0;entryX=0;entryY=0.75;entryDx=0;entryDy=0;strokeColor=#808080;strokeWidth=2;" parent="1" source="ULHrDu6kz-KwB8KMnbt6-6" target="ULHrDu6kz-KwB8KMnbt6-9" edge="1">
          <mxGeometry relative="1" as="geometry" />
        </mxCell>
        <mxCell id="ULHrDu6kz-KwB8KMnbt6-6" value="&lt;b&gt;&lt;font style=&quot;font-size: 14px&quot;&gt;Шум приёмника ГНСС&lt;/font&gt;&lt;/b&gt;" style="rounded=1;whiteSpace=wrap;html=1;strokeWidth=2;strokeColor=#808080;" parent="1" vertex="1">
          <mxGeometry x="80" y="440" width="120" height="60" as="geometry" />
        </mxCell>
        <mxCell id="ULHrDu6kz-KwB8KMnbt6-30" style="edgeStyle=orthogonalEdgeStyle;rounded=1;orthogonalLoop=1;jettySize=auto;html=1;exitX=1;exitY=0.5;exitDx=0;exitDy=0;entryX=0;entryY=0.25;entryDx=0;entryDy=0;strokeColor=#808080;strokeWidth=2;" parent="1" source="ULHrDu6kz-KwB8KMnbt6-7" target="ULHrDu6kz-KwB8KMnbt6-10" edge="1">
          <mxGeometry relative="1" as="geometry" />
        </mxCell>
        <mxCell id="ULHrDu6kz-KwB8KMnbt6-7" value="&lt;span style=&quot;white-space: normal&quot;&gt;&lt;b&gt;Проекция вехи на оси xyz -&amp;nbsp; Lxyz&lt;font style=&quot;font-size: 10px&quot;&gt;2&lt;/font&gt; с учётом шума ИИБ&lt;/b&gt;&lt;/span&gt;" style="rounded=1;whiteSpace=wrap;html=1;strokeWidth=2;strokeColor=#808080;" parent="1" vertex="1">
          <mxGeometry x="400" y="120" width="120" height="60" as="geometry" />
        </mxCell>
        <mxCell id="ULHrDu6kz-KwB8KMnbt6-27" style="edgeStyle=orthogonalEdgeStyle;rounded=1;orthogonalLoop=1;jettySize=auto;html=1;exitX=1;exitY=0.5;exitDx=0;exitDy=0;entryX=0;entryY=0.25;entryDx=0;entryDy=0;strokeColor=#808080;strokeWidth=2;" parent="1" source="ULHrDu6kz-KwB8KMnbt6-8" target="ULHrDu6kz-KwB8KMnbt6-9" edge="1">
          <mxGeometry relative="1" as="geometry" />
        </mxCell>
        <mxCell id="ULHrDu6kz-KwB8KMnbt6-8" value="&lt;b&gt;Истинные координаты фазового центра антенны xyz&lt;font style=&quot;font-size: 10px&quot;&gt;1&lt;/font&gt;&lt;/b&gt;" style="rounded=1;whiteSpace=wrap;html=1;strokeWidth=2;strokeColor=#808080;" parent="1" vertex="1">
          <mxGeometry x="400" y="320" width="120" height="60" as="geometry" />
        </mxCell>
        <mxCell id="ULHrDu6kz-KwB8KMnbt6-29" style="edgeStyle=orthogonalEdgeStyle;rounded=1;orthogonalLoop=1;jettySize=auto;html=1;exitX=1;exitY=0.75;exitDx=0;exitDy=0;entryX=0;entryY=0.75;entryDx=0;entryDy=0;strokeColor=#808080;strokeWidth=2;" parent="1" source="ULHrDu6kz-KwB8KMnbt6-9" target="ULHrDu6kz-KwB8KMnbt6-10" edge="1">
          <mxGeometry relative="1" as="geometry" />
        </mxCell>
        <mxCell id="ULHrDu6kz-KwB8KMnbt6-9" value="&lt;b&gt;Координаты xyz&lt;font style=&quot;font-size: 10px&quot;&gt;1&lt;/font&gt; с учётом шума приёмника&lt;/b&gt;" style="rounded=1;whiteSpace=wrap;html=1;strokeWidth=2;strokeColor=#808080;" parent="1" vertex="1">
          <mxGeometry x="560" y="370" width="120" height="60" as="geometry" />
        </mxCell>
        <mxCell id="ULHrDu6kz-KwB8KMnbt6-31" style="edgeStyle=orthogonalEdgeStyle;rounded=1;orthogonalLoop=1;jettySize=auto;html=1;exitX=1;exitY=0.5;exitDx=0;exitDy=0;entryX=0;entryY=0.25;entryDx=0;entryDy=0;strokeColor=#808080;strokeWidth=2;" parent="1" source="ULHrDu6kz-KwB8KMnbt6-10" target="ULHrDu6kz-KwB8KMnbt6-11" edge="1">
          <mxGeometry relative="1" as="geometry" />
        </mxCell>
        <mxCell id="ULHrDu6kz-KwB8KMnbt6-10" value="&lt;span style=&quot;white-space: normal&quot;&gt;&lt;b&gt;Координаты целевой точки&amp;nbsp; xyz&lt;font style=&quot;font-size: 10px&quot;&gt;2&lt;/font&gt; с учётом шума&lt;/b&gt;&lt;/span&gt;" style="rounded=1;whiteSpace=wrap;html=1;strokeWidth=2;strokeColor=#808080;" parent="1" vertex="1">
          <mxGeometry x="730" y="260" width="120" height="60" as="geometry" />
        </mxCell>
        <mxCell id="ULHrDu6kz-KwB8KMnbt6-11" value="&lt;b&gt;Ошибка определения координат целевой точки&lt;/b&gt;" style="rounded=1;whiteSpace=wrap;html=1;strokeWidth=2;strokeColor=#808080;" parent="1" vertex="1">
          <mxGeometry x="890" y="300" width="120" height="60" as="geometry" />
        </mxCell>
      </root>
    </mxGraphModel>
  </diagram>
</mxfile>
